<svg xmlns="http://www.w3.org/2000/svg" width="357.402" height="102.766" viewBox="0 0 357.402 102.766">
  <g id="hull-left" transform="translate(-1854.6 -1207.9)">
    <g id="Group_667" data-name="Group 667" transform="translate(1965.52 1239.261)">
      <path id="Path_457" data-name="Path 457" d="M2044.553,1268.71l3.8,13.328,10.814-3.1-3.8-13.328a5.582,5.582,0,0,0-6.9-3.858l-.117.058A5.6,5.6,0,0,0,2044.553,1268.71Z" transform="translate(-2044.348 -1261.548)" fill="#939393"/>
      <path id="Path_458" data-name="Path 458" d="M2048.353,1261.834l.117-.058a4.45,4.45,0,0,1,1.228-.176,5.565,5.565,0,0,0-2.689,6.43l3.8,13.328-2.455.7-3.8-13.328A5.6,5.6,0,0,1,2048.353,1261.834Z" transform="translate(-2044.348 -1261.57)" fill="#939393"/>
    </g>
    <path id="Path_459" data-name="Path 459" d="M2047.9,1266.268c3.8-.234,8.593-.468,14.146-.76,0,0,58.749-11.983,91.484-29.579-2.456-1.286-3.917-1.929-3.917-1.929C2113.546,1253.407,2047.9,1266.268,2047.9,1266.268Z" transform="translate(-80.304 -10.843)" fill="#939393"/>
    <path id="Path_460" data-name="Path 460" d="M1854.6,1295.5l13.153,13.153s6.489-1.169,15.315-2.864h0l-20.635-10.23H1854.6Z" transform="translate(0 -36.392)" fill="#939393"/>
    <path id="Path_461" data-name="Path 461" d="M1859.1,1295.5l12.451,12.451c-2.4.468-3.8.7-3.8.7L1854.6,1295.5Z" transform="translate(0 -36.392)" fill="#939393"/>
    <path id="Path_462" data-name="Path 462" d="M1863.6,1318.984l11.341,24.259c212.255,0,299.413-11.223,300.933-11.457h0c20.635-12.627,29.871-27.474,39.809-29.287l-281.818,13.211Z" transform="translate(-3.739 -39.3)" fill="#fff"/>
    <path id="Path_463" data-name="Path 463" d="M1865.337,1330.7l12.977,24.259h-3.273L1863.7,1330.7Z" transform="translate(-3.78 -51.016)" fill="#939393"/>
    <path id="Path_464" data-name="Path 464" d="M1983.9,1304.519l281.818-13.211c-.643-.468-21.161-14.38-57.872-15.608h-.059C2145.648,1275.817,2059.425,1288.794,1983.9,1304.519Z" transform="translate(-53.716 -28.167)" fill="#939393"/>
    <path id="Path_465" data-name="Path 465" d="M1871.433,1272.26s6.489-1.169,15.315-2.864c8.184-1.578,18.355-3.566,27.182-5.5a37.1,37.1,0,0,0,18.3-9.937l42.03-42.03a13.8,13.8,0,0,1,9.762-4.033h29.17l-.936.935a9.421,9.421,0,0,1-6.664,2.747h-15.023a6.425,6.425,0,0,0-5.144,2.631l-20.4,27.767a16.57,16.57,0,0,0-3.157,8.944l-.176,5.086s3.508-.176,9.646-.526c3.8-.234,8.593-.468,14.146-.76,30.1-1.637,82.891-4.384,123.051-5.962,18.589-.7,34.43-1.228,44.134-1.228,1.753,0,3.449.059,5.144.117-62.081,0-148.362,13.036-223.888,28.76l-70.323,3.273Z" transform="translate(-3.739)" fill="#939393"/>
    <g id="Group_668" data-name="Group 668" transform="translate(1859.861 1207.9)">
      <path id="Path_466" data-name="Path 466" d="M1937.839,1253.905c-5.027,5.027-8.3,10.288-15.257,11.75-6.722,1.461-27.591,4.852-37.47,7.307a27.223,27.223,0,0,0-9.528,4.384l-2.572,1.871-9.411.468,7.833-7.424s6.489-1.169,15.316-2.864c8.184-1.578,18.355-3.566,27.182-5.5a37.1,37.1,0,0,0,18.3-9.937l42.03-42.03a13.8,13.8,0,0,1,9.762-4.033h8.944c-3.683,0-11.691,1.461-14.322,4.033Z" transform="translate(-1863.6 -1207.9)" fill="#939393"/>
    </g>
    <path id="Path_467" data-name="Path 467" d="M2163.584,1237.2c-32.794,17.6-91.484,29.579-91.484,29.579,30.1-1.637,82.891-4.384,123.05-5.963A124.694,124.694,0,0,0,2163.584,1237.2Z" transform="translate(-90.358 -12.172)" fill="#939393"/>
    <g id="Group_669" data-name="Group 669" transform="translate(2010.912 1227.249)">
      <path id="Path_468" data-name="Path 468" d="M2219.763,1241l19.7,22.155c-.994.058-1.987.058-2.981.117l-18.881-21.22C2218.3,1241.7,2219,1241.35,2219.763,1241Z" transform="translate(-2161.716 -1241)" fill="#fff" opacity="0.5"/>
      <path id="Path_469" data-name="Path 469" d="M2193.218,1251.9l14.848,16.66c-1.988.117-3.975.175-6.021.292l-13.445-15.14C2190.119,1253.069,2191.7,1252.484,2193.218,1251.9Z" transform="translate(-2149.668 -1245.528)" fill="#fff" opacity="0.5"/>
      <path id="Path_470" data-name="Path 470" d="M2178.558,1256.6l12.743,14.322c-3.215.175-6.43.292-9.645.468l-10.756-12.1C2173.472,1258.412,2176.044,1257.535,2178.558,1256.6Z" transform="translate(-2142.314 -1247.481)" fill="#fff" opacity="0.5"/>
      <path id="Path_471" data-name="Path 471" d="M2153.531,1266.2l8.651,9.7c-1.052.059-2.163.117-3.215.176l-8.067-9.061C2151.777,1266.726,2152.654,1266.492,2153.531,1266.2Z" transform="translate(-2134.006 -1251.469)" fill="#fff" opacity="0.5"/>
      <path id="Path_472" data-name="Path 472" d="M2137.531,1271l6.664,7.483c-1.053.058-2.163.117-3.216.175l-6.079-6.839C2135.719,1271.526,2136.595,1271.292,2137.531,1271Z" transform="translate(-2127.359 -1253.463)" fill="#fff" opacity="0.5"/>
      <path id="Path_473" data-name="Path 473" d="M2126.793,1273.6l5.554,6.255c-1.929.117-3.8.175-5.67.292l-4.677-5.261C2123.578,1274.477,2125.157,1274.068,2126.793,1273.6Z" transform="translate(-2122 -1254.543)" fill="#fff" opacity="0.5"/>
    </g>
    <path id="Path_474" data-name="Path 474" d="M1865.783,1323.118l-1.52-3.215a.623.623,0,0,1,.526-.877l69.388-3.273L2164.495,1305h0l51.5-2.4c-10,1.812-19.174,16.66-39.809,29.287h0c-15.958,9.762-38.7,18.121-73.947,18.121H1878.7a.643.643,0,0,1-.585-.351l-2.923-6.313c106.741,0,181.857-2.865,230.318-5.67a67.488,67.488,0,0,0,37.12-13.913c6.138-4.735,11.691-9.411,16.66-13.971a.608.608,0,0,0-.468-1.052c-87.392,6.9-224.706,11.574-224.706,11.574l-67.809,3.157A.778.778,0,0,1,1865.783,1323.118Z" transform="translate(-3.993 -39.342)" fill="#939393"/>
    <path id="Path_475" data-name="Path 475" d="M2274.7,1325s-40.51,6.079-129.6,12.159c0,0,92.712-1.52,127.552-6.08Z" transform="translate(-120.684 -48.648)" fill="#939393"/>
    <path id="Path_476" data-name="Path 476" d="M2076.188,1212.854a6.424,6.424,0,0,0-5.144,2.63l-1.344,1.812s3.683-5.846,5.495-6.08c1.344-.176,14.79-.117,21.4-.058a9.318,9.318,0,0,1-5.378,1.7Z" transform="translate(-89.36 -1.329)" fill="#fff" opacity="0.5"/>
    <path id="Path_477" data-name="Path 477" d="M2308.092,1292.654,2085.9,1303.06c73.363-5.086,142.283-13.679,182.325-24.26C2293.595,1282.833,2307.566,1292.245,2308.092,1292.654Z" transform="translate(-96.09 -29.455)" fill="#939393"/>
  </g>
</svg>
