<svg xmlns="http://www.w3.org/2000/svg" width="355.818" height="102.31" viewBox="0 0 355.818 102.31">
  <g id="hull-right" transform="translate(-1854.6 -1207.9)">
    <g id="Group_670" data-name="Group 670" transform="translate(2085.235 1239.122)">
      <path id="Path_478" data-name="Path 478" d="M2265.449,1268.678l-3.782,13.269-10.767-3.084,3.783-13.269a5.557,5.557,0,0,1,6.868-3.841l.117.058A5.569,5.569,0,0,1,2265.449,1268.678Z" transform="translate(-2250.9 -1261.549)" fill="#939393"/>
      <path id="Path_479" data-name="Path 479" d="M2267.544,1261.833l-.116-.059a4.433,4.433,0,0,0-1.222-.175,5.542,5.542,0,0,1,2.677,6.4l-3.783,13.269,2.444.7,3.783-13.269A5.478,5.478,0,0,0,2267.544,1261.833Z" transform="translate(-2256.836 -1261.57)" fill="#939393"/>
    </g>
    <path id="Path_480" data-name="Path 480" d="M2197.162,1266.125c-3.784-.232-8.555-.465-14.084-.757,0,0-58.488-11.93-91.078-29.448,2.444-1.28,3.9-1.92,3.9-1.92C2131.749,1253.321,2197.162,1266.125,2197.162,1266.125Z" transform="translate(-99.24 -10.911)" fill="#939393"/>
    <path id="Path_481" data-name="Path 481" d="M2445.642,1295.5l-13.094,13.095s-6.46-1.164-15.248-2.852h0l20.543-10.184h7.8Z" transform="translate(-235.225 -36.62)" fill="#939393"/>
    <path id="Path_482" data-name="Path 482" d="M2449.4,1295.5l-12.4,12.4c2.387.466,3.784.7,3.784.7l13.094-13.095Z" transform="translate(-243.46 -36.62)" fill="#939393"/>
    <path id="Path_483" data-name="Path 483" d="M2205.121,1318.911l-11.291,24.152c-211.313,0-298.085-11.174-299.6-11.406h0c-20.543-12.571-29.739-27.353-39.632-29.157l280.568,13.153Z" transform="translate(0 -39.545)" fill="#fff"/>
    <path id="Path_484" data-name="Path 484" d="M2444.82,1330.7l-12.919,24.152h3.259l11.291-24.152Z" transform="translate(-241.328 -51.334)" fill="#939393"/>
    <path id="Path_485" data-name="Path 485" d="M2135.168,1304.391,1854.6,1291.238c.64-.466,21.067-14.316,57.615-15.538h.058C1974.078,1275.816,2059.978,1288.736,2135.168,1304.391Z" transform="translate(0 -28.342)" fill="#939393"/>
    <path id="Path_486" data-name="Path 486" d="M2238.708,1271.975s-6.46-1.164-15.248-2.851c-8.148-1.572-18.274-3.551-27.062-5.471a36.931,36.931,0,0,1-18.216-9.893l-41.843-41.844a13.74,13.74,0,0,0-9.719-4.016h-29.041l.932.931a9.378,9.378,0,0,0,6.634,2.735H2120.1a6.394,6.394,0,0,1,5.121,2.619l20.311,27.643a16.5,16.5,0,0,1,3.143,8.9l.175,5.063s-3.492-.175-9.6-.524c-3.783-.233-8.555-.466-14.083-.757-29.972-1.629-82.524-4.365-122.505-5.936-18.507-.7-34.278-1.222-43.938-1.222-1.746,0-3.434.058-5.122.117,61.806,0,147.7,12.978,222.9,28.633l70.011,3.26Z" transform="translate(-41.385 0)" fill="#939393"/>
    <g id="Group_671" data-name="Group 671" transform="translate(2076.389 1207.9)">
      <path id="Path_487" data-name="Path 487" d="M2290.58,1253.7c5.005,5,8.265,10.242,15.19,11.7,6.693,1.455,27.469,4.83,37.3,7.275a27.114,27.114,0,0,1,9.486,4.365l2.56,1.862,9.37.466-7.8-7.391s-6.46-1.164-15.248-2.851c-8.148-1.572-18.274-3.551-27.062-5.471a36.94,36.94,0,0,1-18.216-9.893l-41.843-41.844a13.739,13.739,0,0,0-9.719-4.016h-8.9c3.667,0,11.64,1.455,14.258,4.016Z" transform="translate(-2235.7 -1207.9)" fill="#939393"/>
    </g>
    <path id="Path_488" data-name="Path 488" d="M2069.326,1237.2c32.649,17.517,91.078,29.448,91.078,29.448-29.972-1.629-82.523-4.365-122.5-5.936A126.187,126.187,0,0,1,2069.326,1237.2Z" transform="translate(-76.625 -12.249)" fill="#939393"/>
    <g id="Group_672" data-name="Group 672" transform="translate(1977.396 1227.163)">
      <path id="Path_489" data-name="Path 489" d="M2085.213,1241l-19.613,22.057c.989.058,1.979.058,2.969.117l18.8-21.126C2086.668,1241.7,2085.912,1241.349,2085.213,1241Z" transform="translate(-2065.6 -1241)" fill="#fff" opacity="0.5"/>
      <path id="Path_490" data-name="Path 490" d="M2113.482,1251.9l-14.782,16.586c1.978.116,3.957.174,5.994.291l13.386-15.073C2116.567,1253.064,2115,1252.482,2113.482,1251.9Z" transform="translate(-2079.437 -1245.557)" fill="#fff" opacity="0.5"/>
      <path id="Path_491" data-name="Path 491" d="M2127.488,1256.6l-12.687,14.258c3.2.175,6.4.291,9.6.466l10.708-12.047C2132.551,1258.4,2129.99,1257.531,2127.488,1256.6Z" transform="translate(-2086.167 -1247.521)" fill="#fff" opacity="0.5"/>
      <path id="Path_492" data-name="Path 492" d="M2158.913,1266.2l-8.613,9.661,3.2.174,8.031-9.021C2160.659,1266.724,2159.786,1266.491,2158.913,1266.2Z" transform="translate(-2101.007 -1251.534)" fill="#fff" opacity="0.5"/>
      <path id="Path_493" data-name="Path 493" d="M2176.435,1271l-6.635,7.449c1.048.058,2.153.116,3.2.175l6.053-6.809C2178.239,1271.524,2177.307,1271.291,2176.435,1271Z" transform="translate(-2109.159 -1253.541)" fill="#fff" opacity="0.5"/>
      <path id="Path_494" data-name="Path 494" d="M2186.429,1273.6l-5.529,6.227c1.921.117,3.783.175,5.646.291l4.655-5.238C2189.629,1274.473,2188,1274.065,2186.429,1273.6Z" transform="translate(-2113.799 -1254.628)" fill="#fff" opacity="0.5"/>
    </g>
    <path id="Path_495" data-name="Path 495" d="M2203.259,1323.027l1.514-3.2a.62.62,0,0,0-.524-.873l-69.08-3.259-229.3-10.708h0L1854.6,1302.6c9.951,1.8,19.088,16.586,39.632,29.157h0c15.888,9.719,38.527,18.041,73.62,18.041H2190.4a.64.64,0,0,0,.582-.349l2.91-6.285c-106.268,0-181.051-2.852-229.3-5.645a67.189,67.189,0,0,1-36.955-13.851c-6.111-4.714-11.639-9.369-16.587-13.909a.606.606,0,0,1,.466-1.048c87,6.867,223.709,11.523,223.709,11.523l67.509,3.143A.775.775,0,0,0,2203.259,1323.027Z" transform="translate(0 -39.587)" fill="#939393"/>
    <path id="Path_496" data-name="Path 496" d="M1953.7,1325s40.331,6.052,129.023,12.105c0,0-92.3-1.513-126.986-6.053Z" transform="translate(-41.426 -48.951)" fill="#939393"/>
    <path id="Path_497" data-name="Path 497" d="M2225.211,1212.846a6.4,6.4,0,0,1,5.121,2.619l1.339,1.8s-3.666-5.82-5.47-6.053c-1.339-.174-14.725-.116-21.3-.058a9.278,9.278,0,0,0,5.354,1.688Z" transform="translate(-146.436 -1.338)" fill="#fff" opacity="0.5"/>
    <path id="Path_498" data-name="Path 498" d="M1854.6,1292.593l221.207,10.359c-73.038-5.063-141.652-13.618-181.517-24.152C1869.033,1282.815,1855.124,1292.185,1854.6,1292.593Z" transform="translate(0 -29.638)" fill="#939393"/>
  </g>
</svg>
